<?xml version="1.0" encoding="UTF-8"?>
<svg xmlns="http://www.w3.org/2000/svg" id="Layer_1" data-name="Layer 1" viewBox="0 0 122.3 63">
  <defs>
    <style>
      .cls-1 {
        fill: #fff;
      }

      .cls-2 {
        fill: #d9d9d9;
      }

      .cls-3 {
        fill: #1e74fd;
      }

      .cls-4 {
        fill: #5faa3b;
      }
    </style>
  </defs>
  <polygon class="cls-1" points="77.9 32.8 82.42 32.8 81.72 34.84 81.76 34.84 82.48 32.79 75.59 32.79 75.59 32.8 76.79 32.8 77.9 32.8"></polygon>
  <polygon class="cls-1" points="75.32 40.25 79.06 40.25 78.35 42.29 78.4 42.29 79.11 40.25 75.37 40.25 77.24 34.84 77.19 34.84 75.32 40.25"></polygon>
  <polygon class="cls-1" points="81.41 48.31 81.51 48.31 81.56 48.31 81.5 48.22 86.84 32.8 86.79 32.8 81.44 48.22 81.41 48.31"></polygon>
  <polygon class="cls-1" points="97.19 21.76 97.39 21.76 97.39 21.66 97.39 21.56 97.19 21.56 97.19 21.76"></polygon>
  <polygon class="cls-1" points="74.62 24.07 74.62 24.6 74.75 24.47 74.88 24.34 74.75 24.21 74.62 24.07"></polygon>
  <path class="cls-1" d="M67.01,35.6l-2.25,6.48,1.82,3,.02-.06-1.79-2.95,2.25-6.48c.11-.34,.24-.56,.38-.66,.06-.05,.15-.08,.25-.11-.12,.03-.23,.07-.3,.12-.14,.11-.27,.32-.38,.66Z"></path>
  <polygon class="cls-1" points="68.3 47 68.1 47.59 68.1 47.6 69.57 50.01 70.58 47.11 70.59 47.08 70.34 47.29 70.08 47.51 69.21 47.25 68.35 46.99 69.08 44.9 66.68 44.9 66.68 44.91 69.03 44.91 68.3 47"></polygon>
  <path class="cls-1" d="M44.35,25.03h.03v-.02l.69-1.31-.06-.42-.06-.42-.53-.06-.53-.06-.3,.59-.3,.59,.11,.31,.11,.31-.3,.46-.03,.04c.26-.03,.52-.05,.8-.05,.12,0,.24,.02,.35,.02Z"></path>
  <path class="cls-1" d="M48.52,27.45c.11,.2,.19,.42,.28,.64,.04,.12,.07,.25,.11,.37,.15,.55,.24,1.16,.24,1.83v1.63h-3.49l.06,.05,.41,.3h.3v-.34h2.74v-1.63c0-.66-.09-1.27-.24-1.83h.02v-.37h-.12c-.08-.22-.17-.44-.28-.64-.41-.79-.99-1.4-1.76-1.82-.1-.05-.2-.09-.31-.14,.09,.04,.19,.08,.28,.13,.77,.42,1.35,1.02,1.76,1.82Z"></path>
  <path class="cls-1" d="M45.42,31.03l-.26,.35-.06,.08-.06,.08v-.86h.4v-.39c0-.34-.06-.63-.17-.88-.06-.13-.13-.23-.22-.33h-.09l-.34-.26-.09-.07c.09,.02,.18,.06,.26,.11,.1,.06,.18,.14,.26,.22h0c-.07-.09-.16-.17-.27-.23-.08-.05-.17-.07-.26-.11-.15-.05-.32-.08-.49-.08-.32,0-.6,.07-.84,.21-.17,.1-.3,.25-.41,.42h0l.41,.35-.24,.29-.24,.29,.11,.12h0l.11,.11-.48,.32v4.87l.47-.37,.49,.19h0l.49,.18,.13-.07v2.84h1.77v2.89c0,.34-.07,.63-.2,.87-.02,.03-.05,.06-.07,.09,.02-.03,.05-.06,.07-.1,.14-.24,.2-.53,.2-.87v-2.89h-1.77v-3.45h.93l.3-.24-.3-.72-.3-.72,.13-.55,.13-.55,.19-.25,.19-.25,.15,.11v-.8l-.02,.04Zm-.18-.64v-.1h.19v.2h-.19v-.1Zm-1.95,1.77v.3l-.19,.12-.19,.12v-.59l.19-.12,.19-.12v.3Z"></path>
  <path class="cls-1" d="M48.71,44.11c-.41,.79-1.01,1.4-1.79,1.83h-.02c-.79,.42-1.72,.63-2.81,.63-.37,0-.72-.03-1.06-.07,.35,.05,.71,.08,1.1,.08,1.09,0,2.03-.21,2.81-.63,.79-.42,1.38-1.02,1.79-1.83,.41-.8,.62-1.74,.62-2.85v-6.32h-.02v6.31c0,1.11-.2,2.06-.62,2.85Z"></path>
  <path class="cls-1" d="M70.77,32.8c.85,0,1.39,.21,1.64,.63,.25,.42,.23,1.03-.05,1.83l-1.04,3.02h.05l1.05-3.03c.28-.8,.29-1.41,.05-1.83-.24-.42-.79-.63-1.64-.63h-2.76c-.22,0-.43,.02-.63,.05,.19-.02,.38-.04,.58-.04h2.76Z"></path>
  <path class="cls-1" d="M64.68,48.39c.14,0,.25,0,.35-.03,.14-.02,.25-.07,.32-.13-.08,.07-.19,.11-.32,.13-.11,.02-.21,.03-.35,.03Z"></path>
  <polygon class="cls-1" points="69.46 50.35 69.54 50.1 69.45 50.35 69.46 50.35"></polygon>
  <path class="cls-1" d="M100.5,18.39c-.7-.65-1.42-1.28-2.16-1.89-10.09-8.42-23.06-13.5-37.19-13.5s-27.1,5.08-37.19,13.5c-.84,.7-1.66,1.43-2.46,2.17C10.47,28.98,3.43,43.5,3.02,59.65c21.41,0,27.28,.1,32.97,.19,5.01,.08,9.75,.16,25.16,.16s21.2-.08,26.92-.16c6.03-.09,12.25-.18,31.21-.18-.41-16.3-7.58-30.94-18.78-41.26ZM29.89,26.32l-.12,.2-.12,.2h-.15l-.12-.2-.12-.2h.63Zm-.8,4.36v.16l-.29,.12-.29,.12v-.39h.58Zm-1.96,5.8c-.05,.23-.08,.49-.11,.74l-.87,.1-1.09,.13-.12-.32-.12-.32,.59-.5,.59-.5-.25-.31-.25-.31,.24-.08,.24-.08-.11-.3-.11-.3,.54,.14,.54,.14-.12-.31-.12-.31,.36-.12,.36-.12,.49,.12,.14,.03c-.03,.08-.06,.17-.1,.24h0c-.32,.82-.56,1.57-.71,2.24Zm-4.02-15.57l-.34-.09,.44-.02,.44-.02v-.59h-.63l.25-.31,.25-.31,.26,.1,.26,.11v-.49l.19,.3,.19,.3-.11,.59-.12,.59,.33-.32,.34-.33,.56,.2,.57,.2,.47-.12,.48-.12,.2,.74,.2,.74v.49l-.44,.24-.44,.24-.49,.05-.49,.06-.62,.12-.61,.12-.43-.55-.42-.55-.32-.13-.32-.13,.34-.02,.34-.02v-.96l-.34-.09Zm8.9,31.31v-.33h.58v.59h-.32l-.13-.13-.13-.13Zm1.17-.33v-.2h.19v.2h-.19Zm4.11-.96l.38-.24,.19,.12,.19,.12v1.96h-.58v.4h-.39l-.02-.05-.02-.05-.06-1-.06-1.01,.38-.24Zm-.07-1.65l.32-.32,.32-.32v1.67h-.38l-.13-.51-.12-.51Zm3.36,5.21v-.42l.83,.03,.83,.03,.39-.21,.38-.21,.02,.88,.02,.87h-.22l-.21-.02-1.02-.48-1.02-.47Zm59.93-31.36l-.85,.38-.91,.41-.33-.11-.33-.11-.11,.4-.11,.4-.56,.12-.56,.12-.45,.79-.45,.79,.11,.11,.11,.11-.19,.37-.19,.37h.31l.23,.5,.23,.5-.32,.03-.32,.03-.29-.02-.29-.02-.15,.28-.15,.28h-1.36l-.59,.31-.59,.31,.09,.09,.09,.09,.85-.19,.85-.19,.06,.07,.06,.07-.81,.33-.81,.33-.38-.12-.38-.12,.04,.36,.04,.36-.02,.4-.02,.4-.4,.67-.4,.67-.38-.35-.38-.35-.08,.08-.08,.08,.3,.64,.3,.64-.41,.89-.41,.89h-.2l.11-.47,.11-.47-.31-.31-.31-.31v-1.34l.24-.26,.24-.26-.44,.23-.44,.23v1.76l-.34-.1-.34-.1,.45,.24,.45,.24-.07,.93-.07,.93,.31-.02,.31-.02,.06,.52,.06,.52-.49,.12-.49,.12v.32l.58-.09,.58-.09v.36l-.24,.24-.24,.24h-.72l.13,.22,.13,.22-.27,.17-.27,.18h.71l-.12,.2-.12,.2h-.77l-.53,.55-.53,.55-.57,.3-.57,.3-.21,.4-.21,.4-.39,.3-.39,.3-.7,.64-.7,.64-.23,.78-.23,.78,.19,1.07,.19,1.07,.32,.67h1.69l-.71,2.05h-.44l.06,.17,.39,1.07v1.17l-.24,.65-.24,.66h-.7v-.4l-.34-.36-.34-.36-.24-.42-.24-.43v-.43l-.31-.31-.31-.31,.09-.46,.04-.22h-3.55l1.18-3.4-.13,.06-.75,.36-.31-.39-.31-.39-.45-.25-.45-.25-.79,.12-.79,.12-.15-.24-.15-.24-.31,.26-.31,.26-.27-.11-.27-.11-.49,.26-.49,.25h0l1.51-4.38h-.05l-1.52,4.39-.11,.29h.06l.62,.02-.2,.21-.2,.21v.52l.34,.02,.34,.02-.25,.1-.25,.1-.3-.25-.3-.26-.13,.18-.04,.06-.14,.4h4.7l-.71,2.05h-6.75l3.13,5.15h-6.06l-2.99-5.12h.84c.85,0,1.54-.21,2.08-.63h-.02c-.54,.41-1.22,.62-2.08,.62h-2.76c-.84,0-1.37-.21-1.61-.63-.24-.42-.22-1.04,.06-1.87l.75-2.16v-.02l-3.11-5.32-8.74,15.12h-6.06l3.02-5.01,.03-.05v-.8l-.44-.4-.44-.4-.95-.54-.95-.54h-.4l-.57-.6-.57-.6,.11-.18,.04-.07s-.03,0-.05-.01c-.18-.06-.36-.13-.52-.2l-.09,.07-.28,.24v-.48h-.02c-.18-.11-.35-.21-.5-.33-.05-.04-.09-.09-.14-.13,.05,.04,.09,.09,.14,.13h-.03l-.54,.07,.06,.69,.06,.69,.64,.69,.64,.69,.33,.55,.33,.55,.58,.12,.58,.12v.37l1.07,.48,1.07,.48v.45l-.34-.14-.34-.14-.27-.02-.27-.02-.22,.36-.22,.36,.34,.26,.34,.26v.45h-.39v.74l-.31,.26-.31,.26,.04-.59,.04-.59-.02-.31-.02-.31-.54-.6-.54-.6-.42-.13-.42-.13-.11-.29-.11-.29h-.8l-.78-.77-.78-.77-.33-.67-.33-.67-.49-.24-.49-.24-.39,.34-.39,.34-.63,.45-.63,.45-.43-.24-.43-.24-.62-.14-.62-.14-.24,.16-.24,.16-.02,.7-.02,.7-.51,.41-.51,.41h-.83l-.34,.35-.34,.35-.35,.56-.35,.56,.1,.38,.1,.38-.37,.21-.37,.21v.58h-.54l-.51,.4-.51,.4-1.34-.13-1.34-.13-.14,.22-.14,.22h-.55l-.13-.55-.13-.55-.19-.25-.19-.25-.41,.03-.41,.03-.43-.03-.43-.03h0l.29-.83,.29-.83-.3-.17-.28-.16v-.54l.39-.36,.41-.38,.27-.53,.27-.53,.09-1.26,.09-1.26,.65-.15,.65-.15,.39,.17,.39,.17,.77,.26,.77,.26,1.04,.25,1.04,.25,.4-.51,.4-.51,.06-.29c-.14-.06-.29-.11-.41-.18-.72-.39-1.28-.96-1.66-1.7-.39-.74-.58-1.64-.58-2.7v-2.76c0-.58,.05-1.1,.11-1.59,.03-.26,.06-.51,.11-.73,.15-.68,.39-1.42,.71-2.25,.03-.07,.06-.16,.1-.24l.05-.12,.15-.38,.38-.96v-.06l.02-.02-.02,.07,.02-.07,.26-.64v-.03l-.14-.43,.15,.15,.09,.07-.1,.24,.1-.23,2.55-6.36h3.84l-3.36,8.64c.19-.05,.39-.07,.58-.07,.87,0,1.61,.19,2.24,.55,.62,.36,1.09,.89,1.43,1.59,.14,.3,.24,.63,.32,.98l.17-.11,.19,.12,.19,.12,.26-.25,.26-.25-.28-1.14-.28-1.14,.11-.46,.11-.46,.62-.47,.62-.47-.12,.62-.12,.62h.41l-.3,.44-.3,.44v.31h.58v.4h-.55l.11,.4,.11,.4h.49v-.46l-.25-.1,.25-.02v-4.55l-.19-.59-.69,.78-.69,.78h-1.11l-.22-.41-.22-.41,.24-.28,.24-.28h-.67l.14-.55,.14-.55,.02-.99,.02-.99,.44-.2,.44-.2v-.52l.16,.1,.16,.1,.47-.5,.47-.5,.54-.56,.54-.56,.12-.61,.12-.61,.27-.22,.27-.22-.11-.47-.11-.47h.62v-.59h.37l-.11-.3-.11-.3h.43v-.59h-.34l-.24,.3-.24,.3-.22-.02h-.22l.38-.29,.38-.29h-.32l.25-.31,.25-.31,.2,.21,.2,.21h.36l-.11-.42-.11-.42,.36-.4,.36-.4,.19,.12,.19,.12,.41-.35,.41-.35,.24-.48,.24-.48,.27-.09,.04-.02,.13,.21-.04,.13-.13,.42h.25l.16-.17-.24-.39-.13-.21-.18-.29h6.06l8.39,14.32,8.29-14.32h1.56l.02-.02,.62-.02h.62l.07,.04h3.18l-.5,.83h.83l.23,.15,.22,.13-.79,.41-.79,.41-.62,.65-.35,.36-.21,.36-9.52,15.76,2.42,3.98v-.03l-2.4-3.97,9.52-15.76,.06,.06,.12,.12,.59-.31,.59-.31v.52l.32,.12,.32,.12,.45-.31,.45-.31h.57l.61-.52,.61-.52,.1,.1,.1,.1-.3,.25-.3,.25v.35h.84l.34,.31,.34,.31h.9l.78-.21,.78-.21,.15,.29,.15,.29h.71l.12,.31,.12,.31v.09l-.57-.04-.57-.04-.22-.14-.22-.14-.24,.2-.24,.2-.73,.14-.73,.14-.58,.88-.58,.88v.45l.62-.58,.62-.58-.3,.5-.3,.5-.22,1.05-.22,1.05v1.74l.19,.51,.19,.51h.76l.42-.55,.42-.55-.13-1.33-.13-1.33,.21-.79,.21-.79,.21-.13,.21-.13,.17,.27,.17,.27,.03-.2,.03-.2,.02-.2,.02-.2,.24-.45,.24-.45h.56l.62,.38,.62,.38,.07,.65,.07,.65-.41,.55-.41,.55,.12,.2,.12,.2,.49-.4,.49-.4,.16,.1,.16,.1,.12,.85,.12,.85-.62,.94-.62,.94,.36,.28,.36,.28,.51,.02h.51l1.34-.61,1.34-.61,.61-.46,.61-.46-.1-.54-.1-.54,1.19,.12,1.19,.12,.49-.22,.49-.22v-1.05l.54-.51,.54-.51,.42-.22,.42-.22h1.36l.07,.64,.07,.64,.15-.4,.15-.4,.07-.25,.07-.25h1.96v-.4h.56l.37-.55,.37-.55,.14-.59,.14-.59,.49-.77,.49-.77,.15,.25,.15,.25,.42-.14,.42-.14,.28,.24,.28,.24v2.07l.31,.62,.31,.62,.18,.12,.06-.03,.12,.08v.42Z"></path>
  <path class="cls-1" d="M31.76,37.3h.05l-.03,.17,.19-.12,.03-.02c.32,.03,.59,.13,.78,.34v.23l-.52,.55-.52,.55h.74l-.24,.25h0l-.24,.26h-1.56v1.3l.13,.07,.55,.29,.32-.29,.32-.29h.48l.19-.56,.19-.56,.53-.13v-.65c0-.45-.11-.79-.35-1.05-.19-.2-.46-.29-.78-.33-.06,0-.12-.03-.19-.03h-.05c-.42,0-.75,.13-.99,.39-.12,.13-.21,.28-.27,.46,.06-.17,.15-.32,.26-.44,.24-.26,.57-.39,.99-.39Z"></path>
  <path class="cls-4" d="M61.15,0C27.43,0,0,27.43,0,61.15v1.5H1.5c22.63,0,28.64,.1,34.45,.19,5.03,.08,9.77,.16,25.21,.16s21.23-.08,26.96-.16c6.17-.09,12.56-.18,32.69-.18h1.5v-1.5C122.3,27.43,94.87,0,61.15,0Zm26.92,59.84c-5.72,.08-11.12,.16-26.92,.16s-20.14-.08-25.16-.16c-5.69-.09-11.57-.19-32.97-.19,.41-16.15,7.45-30.68,18.48-40.98,.8-.75,1.62-1.47,2.46-2.17C34.05,8.08,47.01,3,61.15,3s27.1,5.08,37.19,13.5c.73,.61,1.45,1.24,2.16,1.89,11.2,10.32,18.37,24.96,18.78,41.26-18.96,0-25.19,.1-31.21,.18Z"></path>
  <polygon class="cls-2" points="72.71 47.84 72.84 47.66 73.14 47.92 73.44 48.17 73.69 48.07 73.94 47.97 73.6 47.95 73.26 47.93 73.26 47.67 73.26 47.41 73.46 47.21 73.66 47 73.05 46.98 72.98 46.98 72.67 47.9 72.71 47.84"></polygon>
  <path class="cls-2" d="M30.43,39.52h1.56l.24-.26h0l.24-.26h-.74l.52-.55,.52-.55v-.23c-.19-.21-.46-.31-.78-.34l-.03,.02-.19,.12,.03-.17h-.05c-.42,0-.75,.13-.99,.39-.11,.12-.2,.27-.26,.44-.06,.17-.09,.37-.09,.59v.8Z"></path>
  <polygon class="cls-2" points="28.8 31.52 28.65 31.37 28.78 31.8 28.79 31.84 28.89 31.6 28.8 31.52"></polygon>
  <polygon class="cls-2" points="28.5 32.49 28.5 32.55 28.53 32.47 28.5 32.49"></polygon>
  <polygon class="cls-2" points="36.97 52.18 37.03 53.18 37.05 53.23 37.07 53.28 37.26 53.28 37.46 53.28 37.46 53.08 37.46 52.88 37.75 52.88 38.04 52.88 38.04 51.91 38.04 50.92 37.85 50.81 37.67 50.69 37.29 50.93 36.9 51.17 36.97 52.18"></polygon>
  <polygon class="cls-2" points="38.53 35.47 38.78 35.57 38.78 35.46 38.53 35.47"></polygon>
  <polygon class="cls-2" points="81.88 50.58 81.79 51.04 82.1 51.35 82.4 51.67 82.4 51.88 82.4 52.1 82.65 52.53 82.89 52.95 83.23 53.31 83.57 53.67 83.57 53.87 83.57 54.08 83.92 54.08 84.27 54.08 84.5 53.42 84.74 52.77 84.74 52.18 84.74 51.59 84.35 50.53 84.29 50.35 81.92 50.35 81.88 50.58"></polygon>
  <polygon class="cls-2" points="33.37 51.79 33.37 51.69 33.27 51.69 33.17 51.69 33.17 51.79 33.17 51.89 33.27 51.89 33.37 51.89 33.37 51.79"></polygon>
  <polygon class="cls-2" points="37.46 50.3 37.65 50.3 37.84 50.3 37.84 49.47 37.84 48.64 37.53 48.96 37.21 49.28 37.33 49.79 37.46 50.3"></polygon>
  <polygon class="cls-2" points="42.82 55.45 43.04 55.46 43.02 54.59 43 53.72 42.62 53.92 42.23 54.14 41.4 54.1 40.57 54.07 40.57 54.29 40.57 54.49 41.59 54.96 42.61 55.44 42.82 55.45"></polygon>
  <path class="cls-2" d="M27.93,34l-.14-.03-.49-.12-.36,.12-.36,.12,.12,.31,.12,.31-.54-.14-.54-.14,.11,.3,.11,.3-.24,.08-.24,.08,.25,.31,.25,.31-.59,.5-.59,.5,.12,.32,.12,.32,1.09-.13,.87-.1c.03-.25,.06-.5,.11-.74,.15-.67,.38-1.42,.71-2.25h0c.03-.07,.06-.15,.1-.23Z"></path>
  <polygon class="cls-2" points="45.43 30.48 45.43 30.38 45.43 30.28 45.34 30.28 45.24 30.28 45.24 30.38 45.24 30.48 45.34 30.48 45.43 30.48"></polygon>
  <path class="cls-2" d="M45.8,41.29v-2.89h-1.77v-2.84l-.13,.07-.49-.19h0l-.49-.18-.47,.37v5.76c0,.31,.06,.56,.19,.79,.14,.22,.32,.4,.58,.52,.25,.12,.54,.18,.88,.18s.65-.07,.91-.19c.21-.11,.38-.27,.51-.46,.02-.03,.05-.05,.07-.09,.13-.24,.2-.53,.2-.87Z"></path>
  <path class="cls-2" d="M42.82,30.33h0l-.11-.11,.24-.29,.24-.29-.41-.34c-.05,.06-.1,.12-.13,.19-.12,.27-.19,.59-.19,.96v.31l.48-.32-.11-.12Z"></path>
  <path class="cls-2" d="M44.53,28.76l.09,.07,.34,.26h.09c-.08-.09-.17-.17-.26-.22-.08-.05-.17-.08-.26-.11Z"></path>
  <polygon class="cls-2" points="45.04 30.68 45.04 31.11 45.04 31.54 45.1 31.46 45.16 31.37 45.42 31.03 45.44 30.99 45.44 30.68 45.36 30.68 45.04 30.68"></polygon>
  <polygon class="cls-2" points="70.89 19.13 71.52 18.47 72.3 18.06 73.1 17.65 72.88 17.52 72.65 17.38 71.82 17.37 70.54 19.49 70.89 19.13"></polygon>
  <path class="cls-2" d="M100.31,22.67l-.18-.12-.31-.62-.31-.62v-2.07l-.28-.24-.28-.24-.42,.14-.42,.14-.15-.25-.15-.25-.49,.77-.49,.77-.14,.59-.14,.59-.37,.55-.37,.55h-.56v.4h-1.96l-.07,.25-.07,.25-.15,.4-.15,.4-.07-.64-.07-.64h-1.36l-.42,.22-.42,.22-.54,.51-.54,.51v1.05l-.49,.22-.49,.22-1.19-.12-1.19-.12,.1,.54,.1,.54-.61,.46-.61,.46-1.34,.61-1.34,.61h-.51l-.51-.02-.36-.28-.36-.28,.62-.94,.62-.94-.12-.85-.12-.85-.16-.1-.16-.1-.49,.4-.49,.4-.12-.2-.12-.2,.41-.55,.41-.55-.07-.65-.07-.65-.62-.38-.62-.38h-.56l-.24,.45-.24,.45-.02,.2-.02,.2-.03,.2-.03,.2-.17-.27-.17-.27-.21,.13-.21,.13-.21,.79-.21,.79,.13,1.33,.13,1.33-.42,.55-.42,.55h-.76l-.19-.51-.19-.51v-1.74l.22-1.05,.22-1.05,.3-.5,.3-.5-.62,.58-.62,.58v-.45l.58-.88,.58-.88,.73-.14,.73-.14,.24-.2,.24-.2,.22,.14,.22,.14,.57,.04,.57,.04v-.09l-.12-.31-.12-.31h-.71l-.15-.29-.15-.29-.78,.21-.78,.21h-.9l-.34-.31-.34-.31h-.84v-.35l.3-.25,.3-.25-.1-.1-.1-.1-.61,.52-.61,.52h-.57l-.45,.31-.45,.31-.32-.12-.32-.12v-.52l-.59,.31-.59,.31-.12-.12-.06-.06-9.52,15.76,2.41,3.97,1.49-4.29c.28-.8,.69-1.41,1.22-1.83,.4-.32,.89-.51,1.47-.59,.2-.03,.41-.05,.63-.05h2.76c.85,0,1.39,.21,1.64,.63,.24,.42,.23,1.03-.05,1.83l-1.05,3.03h-2.44l.93-2.68c.12-.34,.15-.56,.09-.66-.06-.11-.25-.16-.56-.16h-1.32c-.14,0-.26,.02-.37,.04-.1,.03-.19,.06-.25,.11-.14,.1-.27,.32-.38,.66l-2.25,6.48,1.79,2.95,.04-.12h2.44l-.72,2.08,.86,.26,.87,.26,.26-.22,.25-.21,4.95-14.28h.05v-.02h6.89l-.71,2.05h-4.53l-1.87,5.41h3.75l-.71,2.05h-3.75l-1.51,4.39h0l.49-.25,.49-.26,.27,.11,.27,.11,.31-.26,.31-.26,.15,.24,.15,.24,.79-.12,.79-.12,.45,.25,.45,.25,.31,.39,.31,.39,.75-.36,.13-.06v-.03l4.9-14.11h2.39l-5.34,15.42,.06,.08h2.2l-.32-.67-.19-1.07-.19-1.07,.23-.78,.23-.78,.7-.64,.7-.64,.39-.3,.39-.3,.21-.4,.21-.4,.57-.3,.57-.3,.53-.55,.53-.55h.77l.12-.2,.12-.2h-.71l.27-.18,.27-.17-.13-.22-.13-.22h.72l.24-.24,.24-.24v-.36l-.58,.09-.58,.09v-.32l.49-.12,.49-.12-.06-.52-.06-.52-.31,.02-.31,.02,.07-.93,.07-.93-.45-.24-.45-.24,.34,.1,.34,.1v-1.76l.44-.23,.44-.23-.24,.26-.24,.26v1.34l.31,.31,.31,.31-.11,.47-.11,.47h.2l.41-.89,.41-.89-.3-.64-.3-.64,.08-.08,.08-.08,.38,.35,.38,.35,.4-.67,.4-.67,.02-.4,.02-.4-.04-.36-.04-.36,.38,.12,.38,.12,.81-.33,.81-.33-.06-.07-.06-.07-.85,.19-.85,.19-.09-.09-.09-.09,.59-.31,.59-.31h1.36l.15-.28,.15-.28,.29,.02,.29,.02,.32-.03,.32-.03-.23-.5-.23-.5h-.31l.19-.37,.19-.37-.11-.11-.11-.11,.45-.79,.45-.79,.56-.12,.56-.12,.11-.4,.11-.4,.33,.11,.33,.11,.91-.41,.85-.38v-.42l-.12-.08-.06,.03Zm-25.56,1.8l-.13,.13v-.53l.13,.13,.13,.13-.13,.13Zm22.64-2.81v.1h-.19v-.2h.19v.1Z"></path>
  <polygon class="cls-2" points="69.08 16.5 68.46 16.5 67.84 16.52 67.83 16.54 69.15 16.54 69.08 16.5"></polygon>
  <polygon class="cls-2" points="44.47 16.54 44.46 16.53 44.46 16.54 44.47 16.54 44.47 16.54"></polygon>
  <polygon class="cls-2" points="42.9 32.09 42.9 32.39 42.9 32.69 43.1 32.56 43.29 32.45 43.29 32.15 43.29 31.85 43.1 31.97 42.9 32.09"></polygon>
  <path class="cls-2" d="M32.41,40.04l-.19,.56h-.48l-.32,.29-.32,.29-.55-.29-.13-.07v.79c0,.47,.12,.83,.36,1.08,.24,.25,.54,.37,.99,.37s.78-.12,1.01-.36c.24-.24,.35-.6,.35-1.09v-2.26l-.53,.13-.19,.56Z"></path>
  <polygon class="cls-2" points="28.5 30.88 28.5 31.07 28.8 30.95 29.09 30.84 29.09 30.76 29.09 30.68 28.8 30.68 28.5 30.68 28.5 30.88"></polygon>
  <polygon class="cls-2" points="29.38 26.52 29.5 26.72 29.58 26.72 29.65 26.72 29.77 26.52 29.89 26.32 29.58 26.32 29.26 26.32 29.38 26.52"></polygon>
  <path class="cls-2" d="M44.06,17.43l-.16,.17h-.25l.13-.42,.04-.13-.13-.21-.04,.02-.27,.09-.24,.48-.24,.48-.41,.35-.41,.35-.19-.12-.19-.12-.36,.4-.36,.4,.11,.42,.11,.42h-.36l-.2-.21-.2-.21-.25,.31-.25,.31h.32l-.38,.29-.38,.29h.22l.22,.02,.24-.3,.24-.3h.34v.59h-.43l.11,.3,.11,.3h-.37v.59h-.62l.11,.47,.11,.47-.27,.22-.27,.22-.12,.61-.12,.61-.54,.56-.54,.56-.47,.5-.47,.5-.16-.1-.16-.1v.52l-.44,.2-.44,.2-.02,.99-.02,.99-.14,.55-.14,.55h.67l-.24,.28-.24,.28,.22,.41,.22,.41h1.11l.69-.78,.69-.78,.19,.59v-.44c0-1.13,.2-2.11,.62-2.92,.41-.82,1.01-1.45,1.79-1.87,.58-.32,1.24-.52,1.99-.6h.03l.03-.04,.3-.46-.11-.31-.11-.31,.3-.59,.3-.59,.53,.06,.53,.06,.06,.42,.06,.42-.68,1.31v.02c.78,.04,1.48,.19,2.09,.47,.1,.04,.21,.09,.31,.14,.77,.41,1.35,1.02,1.76,1.82,.11,.21,.19,.42,.28,.64h.12v.37h-.02c.15,.55,.24,1.16,.24,1.83v1.63h-2.74v.34h-.3l-.41-.3-.06-.04h-.2v-.14l-.15-.11-.19,.25-.19,.25-.13,.55-.13,.55,.3,.72,.3,.72-.3,.24h4.38v6.33c0,1.11-.2,2.05-.62,2.85-.41,.8-1.01,1.4-1.79,1.83-.79,.42-1.72,.63-2.81,.63-.39,0-.76-.03-1.1-.08-.33-.05-.64-.12-.93-.21l-.04,.07-.11,.18,.57,.6,.57,.6h.4l.95,.54,.95,.54,.44,.4,.44,.4v.8l8.9-14.8-11.09-18.2Z"></path>
  <path class="cls-2" d="M41.23,45.95s-.05-.03-.07-.04v.48l.28-.24,.09-.07h-.02c-.09-.05-.19-.08-.28-.12Z"></path>
  <path class="cls-2" d="M39.41,44.18c-.42-.78-.63-1.7-.63-2.78v-5.38h-.49l-.11-.4-.11-.4h.55v-.4h-.58v-.31l.3-.44,.3-.44h-.41l.12-.62,.12-.62-.62,.47-.62,.47-.11,.46-.11,.46,.28,1.14,.28,1.14-.26,.25-.26,.25-.19-.12-.19-.12-.17,.11h0c.11,.47,.16,.98,.16,1.53v3.11c0,1.04-.19,1.95-.58,2.69-.38,.74-.94,1.32-1.67,1.71v.02c-.74,.39-1.61,.59-2.63,.59-.84,0-1.57-.14-2.21-.4h0l-.06,.29-.4,.51-.4,.51-1.04-.25-1.04-.25-.77-.26-.77-.26-.39-.17-.39-.17-.65,.15-.65,.15-.09,1.26-.09,1.26-.27,.53-.27,.53-.41,.38-.39,.36v.54l.28,.16,.3,.17-.29,.83-.29,.83h0l.43,.03,.43,.03,.41-.03,.41-.03,.19,.25,.19,.25,.13,.55,.13,.55h.55l.14-.22,.14-.22,1.34,.13,1.34,.13,.51-.4,.51-.4h.54v-.58l.37-.21,.37-.21-.1-.38-.1-.38,.35-.56,.35-.56,.34-.35,.34-.35h.83l.51-.41,.51-.41,.02-.7,.02-.7,.24-.16,.24-.16,.62,.14,.62,.14,.43,.24,.43,.24,.63-.45,.63-.45,.39-.34,.39-.34,.49,.24,.49,.24,.33,.67,.33,.67,.78,.77,.78,.77h.8l.11,.29,.11,.29,.42,.13,.42,.13,.54,.6,.54,.6,.02,.31,.02,.31-.04,.59-.04,.59,.31-.26,.31-.26v-.74h.39v-.45l-.34-.26-.34-.26,.22-.36,.22-.36,.27,.02,.27,.02,.34,.14,.34,.14v-.45l-1.07-.48-1.07-.48v-.37l-.58-.12-.58-.12-.33-.55-.33-.55-.64-.69-.64-.69-.06-.69-.06-.69,.54-.07h.03c-.05-.04-.09-.09-.14-.13-.43-.35-.8-.76-1.08-1.27Z"></path>
  <polygon class="cls-2" points="23.45 21.96 23.11 21.98 22.76 21.99 23.09 22.12 23.41 22.26 23.84 22.81 24.26 23.36 24.87 23.25 25.49 23.13 25.98 23.07 26.46 23.02 26.9 22.79 27.34 22.55 27.34 22.3 27.34 22.06 27.13 21.32 26.93 20.57 26.45 20.7 25.98 20.81 25.42 20.61 24.86 20.41 24.52 20.75 24.18 21.07 24.31 20.47 24.42 19.88 24.22 19.58 24.04 19.28 24.03 19.53 24.03 19.77 23.77 19.66 23.51 19.56 23.26 19.87 23.01 20.18 23.32 20.18 23.64 20.18 23.64 20.47 23.64 20.77 23.2 20.79 22.76 20.82 23.11 20.91 23.45 21 23.45 21.48 23.45 21.96"></polygon>
  <polygon class="cls-2" points="32.43 52.49 32.59 52.49 32.59 52.19 32.59 51.89 32.3 51.89 32.01 51.89 32.01 52.06 32.01 52.22 32.14 52.35 32.27 52.49 32.43 52.49"></polygon>
  <path class="cls-3" d="M63.68,45.22l-.82,2.36c-.11,.31-.13,.54-.06,.64,.06,.11,.26,.17,.57,.17h1.32c.14,0,.24-.02,.35-.03,.13-.02,.24-.07,.32-.13,.13-.11,.25-.33,.36-.64l.86-2.49-1.82-3-1.09,3.13Z"></path>
  <path class="cls-3" d="M69.45,50.35l.09-.25,.03-.09-1.47-2.41-.1,.29c-.28,.83-.7,1.45-1.23,1.87h0c-.54,.42-1.22,.63-2.08,.63h-.84l2.99,5.12h6.06l-3.13-5.15h-.32Z"></path>
  <polygon class="cls-3" points="63.23 39.61 63.24 39.58 60.81 35.6 70.33 19.84 70.54 19.49 71.82 17.37 72.33 16.54 69.15 16.54 67.83 16.54 66.26 16.54 57.97 30.86 49.58 16.54 44.47 16.54 44.47 16.54 44.46 16.54 43.52 16.54 43.7 16.83 43.83 17.05 44.06 17.43 55.15 35.63 46.25 50.43 46.22 50.49 43.2 55.5 49.26 55.5 58 40.38 61.11 45.7 62.38 42.05 63.23 39.61"></polygon>
  <path d="M68,47.89l.1-.29h0l.2-.59,.72-2.09h-2.39l-.04,.12-.02,.06-.86,2.49c-.11,.31-.24,.54-.36,.64-.07,.07-.19,.11-.32,.13-.1,.02-.21,.03-.35,.03h-1.32c-.31,0-.5-.06-.57-.17-.06-.11-.04-.33,.06-.64l.82-2.36,1.09-3.13,2.25-6.48c.11-.34,.24-.55,.38-.66,.07-.05,.18-.09,.3-.12,.11-.02,.23-.04,.37-.04h1.32c.31,0,.49,.05,.56,.16,.06,.1,.03,.32-.09,.66l-.93,2.69h2.39l1.04-3.03c.28-.8,.3-1.41,.05-1.83-.24-.42-.79-.63-1.64-.63h-2.76c-.2,0-.4,.01-.58,.04-.58,.08-1.06,.27-1.47,.59-.54,.42-.94,1.03-1.22,1.83l-1.49,4.29v.03l-.02,.03-.85,2.44-1.27,3.65v.02l-.75,2.16c-.28,.83-.31,1.45-.06,1.87,.24,.42,.78,.63,1.61,.63h2.76c.85,0,1.54-.21,2.08-.63h.02c.54-.41,.95-1.03,1.23-1.86Z"></path>
  <polygon points="78.35 42.29 79.06 40.25 75.32 40.25 77.19 34.84 77.24 34.84 81.71 34.84 81.72 34.84 82.42 32.8 77.9 32.8 76.79 32.8 75.59 32.8 75.54 32.8 70.59 47.08 70.58 47.11 69.57 50.01 69.54 50.1 69.46 50.35 69.77 50.35 69.78 50.35 70.7 50.35 71.82 50.35 76.52 50.35 77.23 48.31 72.53 48.31 72.67 47.9 72.98 46.98 73.09 46.69 74.6 42.3 74.65 42.3 78.35 42.3 78.35 42.29"></polygon>
  <polygon points="81.56 48.31 81.51 48.31 81.41 48.31 81.44 48.22 86.79 32.8 84.5 32.8 84.45 32.8 79.56 46.92 79.55 46.95 78.37 50.35 79.51 50.35 80.7 50.35 81.92 50.35 84.29 50.35 84.73 50.35 85.44 48.31 83.76 48.31 83.71 48.31 81.56 48.31"></polygon>
  <path d="M31.77,46.56c1.02,0,1.9-.2,2.63-.59v-.02c.74-.39,1.3-.97,1.68-1.71,.38-.74,.58-1.65,.58-2.69v-3.11c0-.55-.06-1.06-.16-1.53h0c-.08-.36-.19-.69-.32-.98-.33-.69-.8-1.23-1.43-1.59-.62-.36-1.37-.55-2.24-.55-.19,0-.4,.02-.58,.07l3.36-8.64h-3.84l-2.55,6.36-.1,.23-.26,.64-.02,.07-.38,.96-.15,.38-.05,.12c-.03,.08-.06,.17-.1,.24-.32,.83-.55,1.57-.71,2.25-.05,.22-.08,.48-.11,.73-.06,.5-.11,1.02-.11,1.59v2.76c0,1.06,.19,1.96,.58,2.7,.38,.74,.94,1.31,1.66,1.7,.13,.07,.27,.12,.41,.18h0c.64,.26,1.37,.4,2.21,.4Zm-.99-8.9c.24-.26,.57-.39,.99-.39h.05c.06,0,.12,.02,.19,.03,.32,.04,.58,.13,.78,.33,.24,.26,.35,.6,.35,1.05v2.92c0,.49-.11,.85-.35,1.09-.24,.24-.57,.36-1.01,.36s-.75-.12-.99-.37c-.24-.25-.36-.61-.36-1.08v-2.89c0-.22,.03-.42,.09-.59,.06-.18,.15-.33,.27-.46Z"></path>
  <path d="M44.08,46.56c1.09,0,2.03-.21,2.81-.63h.02c.78-.42,1.38-1.03,1.79-1.83,.41-.79,.62-1.74,.62-2.85v-6.31h-5.29v3.44h1.77v2.89c0,.34-.06,.63-.2,.87-.02,.04-.05,.06-.07,.1-.13,.19-.3,.35-.51,.46-.26,.12-.56,.19-.91,.19s-.63-.06-.88-.18c-.25-.12-.44-.3-.58-.52-.13-.23-.19-.49-.19-.79v-10.94c0-.37,.06-.69,.19-.96,.03-.07,.08-.13,.13-.19h0c.11-.18,.24-.33,.41-.43,.24-.15,.51-.21,.84-.21,.18,0,.35,.03,.49,.08,.09,.03,.18,.06,.26,.11,.11,.06,.19,.14,.27,.22h0c.09,.11,.17,.21,.22,.34,.11,.25,.17,.54,.17,.88v1.63h3.7v-1.63c0-.67-.08-1.27-.24-1.83-.03-.12-.06-.26-.11-.37-.08-.22-.17-.45-.28-.64-.41-.79-.99-1.4-1.76-1.82-.09-.05-.19-.09-.28-.13-.61-.28-1.32-.43-2.11-.47h-.03c-.11,0-.23-.02-.35-.02-.27,0-.54,.02-.8,.05h-.03c-.75,.08-1.41,.28-1.99,.6-.78,.43-1.38,1.06-1.79,1.87-.41,.82-.62,1.79-.62,2.92v10.94c0,1.07,.21,2,.63,2.78,.28,.5,.64,.92,1.08,1.27,.05,.04,.09,.09,.14,.13,.15,.12,.32,.21,.5,.31h.02s.05,.05,.07,.06c.09,.04,.19,.07,.28,.12h.02c.16,.08,.34,.14,.52,.21,.01,0,.03,0,.05,.01,.3,.09,.6,.16,.93,.21,.33,.05,.68,.07,1.06,.07Z"></path>
</svg>
